<?xml version="1.0" encoding="UTF-8" standalone="no"?>
<svg
   xmlns:dc="http://purl.org/dc/elements/1.1/"
   xmlns:cc="http://creativecommons.org/ns#"
   xmlns:rdf="http://www.w3.org/1999/02/22-rdf-syntax-ns#"
   xmlns:svg="http://www.w3.org/2000/svg"
   xmlns="http://www.w3.org/2000/svg"
   xmlns:sodipodi="http://sodipodi.sourceforge.net/DTD/sodipodi-0.dtd"
   xmlns:inkscape="http://www.inkscape.org/namespaces/inkscape"
   width="210mm"
   height="297mm"
   viewBox="0 0 210 297"
   version="1.1"
   id="svg8"
   inkscape:version="1.0.1 (3bc2e813f5, 2020-09-07)"
   sodipodi:docname="Github.svg">
  <defs
     id="defs2" />
  <sodipodi:namedview
     id="base"
     pagecolor="#ffffff"
     bordercolor="#666666"
     borderopacity="1.0"
     inkscape:pageopacity="0.0"
     inkscape:pageshadow="2"
     inkscape:zoom="5.8424785"
     inkscape:cx="134.5494"
     inkscape:cy="71.842861"
     inkscape:document-units="mm"
     inkscape:current-layer="layer1"
     inkscape:document-rotation="0"
     showgrid="false"
     inkscape:window-width="1920"
     inkscape:window-height="1017"
     inkscape:window-x="-8"
     inkscape:window-y="-8"
     inkscape:window-maximized="1" />
  <metadata
     id="metadata5">
    <rdf:RDF>
      <cc:Work
         rdf:about="">
        <dc:format>image/svg+xml</dc:format>
        <dc:type
           rdf:resource="http://purl.org/dc/dcmitype/StillImage" />
        <dc:title></dc:title>
      </cc:Work>
    </rdf:RDF>
  </metadata>
  <g
     inkscape:label="Ebene 1"
     inkscape:groupmode="layer"
     id="layer1">
    <g
       id="g937"
       transform="matrix(1.1983748,0,0,1.1983748,-5.5118453,-2.6781338)"
       inkscape:export-filename="D:\CPACS\Homepage\content\pages\images\github_repo.png"
       inkscape:export-xdpi="96"
       inkscape:export-ydpi="96">
      <rect
         id="rect44"
         width="29.206221"
         height="9.3226833"
         x="27.785002"
         y="13.50037"
         style="fill:#3d3d3d;fill-opacity:1;stroke-width:0.264583"
         ry="1.3163733"
         inkscape:export-xdpi="96"
         inkscape:export-ydpi="96" />
      <text
         xml:space="preserve"
         style="font-style:normal;font-weight:normal;font-size:3.52778px;line-height:1.25;font-family:sans-serif;fill:#e5e5e5;fill-opacity:1;stroke:none;stroke-width:0.264583"
         x="36.845673"
         y="16.942146"
         id="text26"
         inkscape:export-xdpi="96"
         inkscape:export-ydpi="96"><tspan
           sodipodi:role="line"
           id="tspan24"
           x="36.845673"
           y="16.942146"
           style="font-size:3.52778px;fill:#e5e5e5;fill-opacity:1;stroke-width:0.264583">GitHub</tspan><tspan
           sodipodi:role="line"
           x="36.845673"
           y="21.351871"
           style="font-size:3.52778px;fill:#e5e5e5;fill-opacity:1;stroke-width:0.264583"
           id="tspan28">Repository</tspan></text>
      <path
         style="fill:#e6e6e6;fill-opacity:1;stroke-width:0.00563653"
         d="m 31.366353,21.720088 c -0.194666,-0.07026 -0.315751,-0.121294 -0.466463,-0.196613 -0.506505,-0.253129 -0.950445,-0.624022 -1.291779,-1.079228 -0.577716,-0.770445 -0.824594,-1.722988 -0.696102,-2.685809 0.08682,-0.65057 0.35821,-1.279935 0.774123,-1.795236 0.789391,-0.978026 2.010542,-1.481688 3.25845,-1.343943 1.149018,0.12683 2.154388,0.775973 2.753636,1.777956 0.05546,0.09273 0.171097,0.320221 0.212596,0.41823 0.290248,0.685489 0.367421,1.429812 0.223417,2.154848 -0.240191,1.209335 -1.086137,2.223539 -2.237074,2.682029 -0.152395,0.06071 -0.196501,0.07424 -0.242034,0.07424 -0.111316,0 -0.205547,-0.07817 -0.254807,-0.21137 -0.0098,-0.02663 -0.01061,-0.06509 -0.01378,-0.698931 -0.0024,-0.479729 -0.0053,-0.683589 -0.01016,-0.715839 -0.01058,-0.07006 -0.02772,-0.131442 -0.04934,-0.176634 -0.01088,-0.02275 -0.01895,-0.04204 -0.01793,-0.04288 10e-4,-8.39e-4 0.02595,-0.0058 0.0554,-0.01104 0.08531,-0.01516 0.27115,-0.06244 0.369193,-0.09392 0.488453,-0.156847 0.847241,-0.408455 1.08051,-0.757735 0.119366,-0.178731 0.211081,-0.421827 0.243488,-0.645383 0.04324,-0.298286 0.01545,-0.647864 -0.07368,-0.926889 -0.07411,-0.231991 -0.206644,-0.464269 -0.349329,-0.612219 l -0.02478,-0.0257 0.02221,-0.04758 c 0.02772,-0.05936 0.04709,-0.125913 0.06355,-0.218291 0.01739,-0.09756 0.01885,-0.319572 0.0027,-0.415485 -0.02242,-0.133456 -0.07183,-0.265356 -0.135733,-0.362357 l -0.02678,-0.04066 -0.0319,5e-6 c -0.09396,1.1e-5 -0.251094,0.02386 -0.357897,0.05431 -0.236729,0.06749 -0.482979,0.211575 -0.651541,0.381219 l -0.04751,0.04781 -0.04549,-0.01536 c -0.147698,-0.04986 -0.378704,-0.09062 -0.609148,-0.107479 -0.108368,-0.0079 -0.400245,-0.0079 -0.498834,2.2e-5 -0.241313,0.01943 -0.452875,0.05825 -0.604511,0.110918 l -0.05495,0.01909 -0.05222,-0.05222 c -0.214697,-0.214695 -0.512276,-0.37033 -0.798911,-0.417832 -0.067,-0.0111 -0.160047,-0.02048 -0.203202,-0.02048 h -0.03291 l -0.02267,0.03167 c -0.03069,0.04286 -0.07458,0.129775 -0.09524,0.188603 -0.07041,0.200473 -0.07622,0.468773 -0.01491,0.688534 0.01291,0.04629 0.05809,0.148936 0.0767,0.174269 0.0058,0.0079 5.35e-4,0.01631 -0.03555,0.05637 -0.310272,0.344397 -0.463037,0.784157 -0.448096,1.28991 0.0063,0.214875 0.04126,0.395541 0.111031,0.574517 0.208637,0.535222 0.695943,0.916849 1.400424,1.096722 0.0527,0.01346 0.130063,0.03116 0.171914,0.03935 0.04185,0.0082 0.07916,0.01588 0.08291,0.01709 0.0047,0.0015 0.0017,0.01341 -0.0098,0.03889 -0.04098,0.09039 -0.06076,0.211615 -0.06897,0.422726 l -0.0013,0.03332 -0.03946,0.01332 c -0.166592,0.05626 -0.4115,0.05802 -0.596791,0.0043 -0.210064,-0.0609 -0.352169,-0.165629 -0.473814,-0.34919 -0.129491,-0.1954 -0.300253,-0.318101 -0.493797,-0.354815 -0.08062,-0.01529 -0.161683,-0.0097 -0.209509,0.01452 -0.06506,0.03291 -0.0333,0.09636 0.09422,0.188185 0.142974,0.102954 0.270952,0.281948 0.366333,0.512364 0.03582,0.08654 0.09267,0.17055 0.170581,0.252101 0.166259,0.174022 0.391825,0.282093 0.658032,0.315273 0.06697,0.0083 0.244156,0.0083 0.318464,-1.58e-4 0.05871,-0.0067 0.179472,-0.02604 0.198986,-0.03195 0.0097,-0.0029 0.01008,0.0091 0.0084,0.272178 l -0.0018,0.275256 -0.01449,0.03731 c -0.03282,0.08454 -0.08858,0.149507 -0.1555,0.1812 -0.03339,0.01581 -0.04518,0.01838 -0.0892,0.01945 -0.0279,6.75e-4 -0.05834,-0.0015 -0.06764,-0.0049 z"
         id="path869"
         inkscape:export-xdpi="96"
         inkscape:export-ydpi="96" />
    </g>
    <g
       id="g930"
       transform="matrix(1.1983748,0,0,1.1983748,-5.4758551,-5.0134878)"
       inkscape:export-filename="D:\CPACS\Homepage\content\pages\images\github_releases.png"
       inkscape:export-xdpi="96"
       inkscape:export-ydpi="96">
      <rect
         id="rect44-6"
         width="29.206221"
         height="9.3226833"
         x="27.603577"
         y="25.2728"
         style="fill:#3d3d3d;fill-opacity:1;stroke-width:0.264583"
         ry="1.3163733"
         inkscape:export-xdpi="96"
         inkscape:export-ydpi="96" />
      <text
         xml:space="preserve"
         style="font-style:normal;font-weight:normal;font-size:3.52777px;line-height:1.25;font-family:sans-serif;fill:#e5e5e5;fill-opacity:1;stroke:none;stroke-width:0.264583"
         x="36.664249"
         y="29.042727"
         id="text26-4"
         inkscape:export-xdpi="96"
         inkscape:export-ydpi="96"><tspan
           sodipodi:role="line"
           id="tspan24-7"
           x="36.664249"
           y="29.042727"
           style="font-size:3.52777px;fill:#e5e5e5;fill-opacity:1;stroke-width:0.264583">GitHub</tspan><tspan
           sodipodi:role="line"
           x="36.664249"
           y="33.452438"
           style="font-size:3.52777px;fill:#e5e5e5;fill-opacity:1;stroke-width:0.264583"
           id="tspan28-9">Releases</tspan></text>
      <path
         style="fill:#e6e6e6;fill-opacity:1;stroke-width:0.00563652"
         d="M 31.184928,33.492519 C 30.990262,33.422259 30.869177,33.371225 30.718465,33.295906 30.21196,33.042777 29.76802,32.671884 29.426686,32.216678 28.84897,31.446233 28.602092,30.49369 28.730584,29.530869 c 0.08682,-0.65057 0.35821,-1.279935 0.774123,-1.795236 0.789391,-0.978026 2.010542,-1.481688 3.25845,-1.343943 1.149018,0.12683 2.154389,0.775973 2.753636,1.777956 0.05546,0.09273 0.171097,0.320221 0.212597,0.41823 0.290247,0.685489 0.36742,1.429812 0.223416,2.154848 -0.24019,1.209335 -1.086136,2.223539 -2.237074,2.682029 -0.152395,0.06071 -0.196501,0.07424 -0.242034,0.07424 -0.111316,0 -0.205546,-0.07817 -0.254807,-0.21137 -0.0098,-0.02663 -0.01061,-0.06509 -0.01378,-0.698931 -0.0024,-0.479729 -0.0053,-0.683589 -0.01016,-0.715839 -0.01058,-0.07006 -0.02772,-0.131442 -0.04934,-0.176634 -0.01088,-0.02275 -0.01895,-0.04204 -0.01793,-0.04288 10e-4,-8.47e-4 0.02595,-0.0058 0.0554,-0.01104 0.08531,-0.01516 0.27115,-0.06244 0.369193,-0.09392 0.488454,-0.156847 0.847242,-0.408455 1.080511,-0.757735 0.119366,-0.178731 0.211081,-0.421827 0.243488,-0.645383 0.04324,-0.298286 0.01545,-0.647864 -0.07368,-0.926889 -0.07411,-0.231991 -0.206644,-0.464269 -0.349329,-0.612219 l -0.02478,-0.0257 0.02221,-0.04758 c 0.02772,-0.05936 0.04709,-0.125913 0.06355,-0.218291 0.01739,-0.09756 0.01885,-0.319572 0.0027,-0.415485 -0.02242,-0.133456 -0.07183,-0.265356 -0.135731,-0.362357 l -0.02678,-0.04066 -0.0319,5e-6 c -0.09396,1.1e-5 -0.251094,0.02386 -0.357897,0.05431 -0.236729,0.06749 -0.482979,0.211575 -0.651541,0.381219 l -0.04751,0.04781 -0.04549,-0.01536 c -0.147697,-0.04986 -0.378704,-0.09062 -0.609147,-0.10748 -0.108369,-0.0079 -0.400245,-0.0079 -0.498835,2.2e-5 -0.241312,0.01943 -0.452875,0.05825 -0.604511,0.110918 l -0.05495,0.01909 -0.05222,-0.05222 c -0.214696,-0.214695 -0.512275,-0.37033 -0.79891,-0.417832 -0.067,-0.0111 -0.160047,-0.02048 -0.203203,-0.02048 h -0.03291 l -0.02267,0.03167 c -0.03069,0.04286 -0.07458,0.129775 -0.09524,0.188603 -0.07041,0.200473 -0.07622,0.468773 -0.01491,0.688534 0.01291,0.04629 0.05809,0.148936 0.0767,0.174269 0.0058,0.0079 5.3e-4,0.01631 -0.03555,0.05637 -0.310272,0.344397 -0.463037,0.784157 -0.448096,1.28991 0.0063,0.214875 0.04126,0.395541 0.111031,0.574517 0.208637,0.535222 0.695943,0.916849 1.400424,1.096722 0.0527,0.01346 0.130063,0.03116 0.171914,0.03935 0.04185,0.0082 0.07916,0.01588 0.08291,0.01709 0.0047,0.0015 0.0017,0.01341 -0.0098,0.03889 -0.04098,0.09039 -0.06076,0.211615 -0.06897,0.422726 l -0.0013,0.03332 -0.03946,0.01332 c -0.166592,0.05626 -0.4115,0.05802 -0.596791,0.0043 -0.210059,-0.0609 -0.352164,-0.165629 -0.473809,-0.34919 -0.129491,-0.1954 -0.300253,-0.318101 -0.493797,-0.354815 -0.08062,-0.01529 -0.161683,-0.0097 -0.209509,0.01452 -0.06506,0.03291 -0.0333,0.09636 0.09422,0.188185 0.142974,0.102954 0.270952,0.281948 0.366333,0.512364 0.03582,0.08654 0.09267,0.17055 0.170581,0.252101 0.166259,0.174022 0.391825,0.282093 0.658032,0.315273 0.06697,0.0083 0.244156,0.0083 0.318464,-1.58e-4 0.05871,-0.0067 0.179472,-0.02604 0.198986,-0.03195 0.0097,-0.0029 0.01008,0.0091 0.0084,0.272178 l -0.0018,0.275256 -0.01449,0.03731 c -0.03282,0.08454 -0.08858,0.149507 -0.1555,0.1812 -0.03339,0.01581 -0.04518,0.01838 -0.0892,0.01945 -0.0279,6.88e-4 -0.05834,-0.0015 -0.06764,-0.0049 z"
         id="path869-2"
         inkscape:export-xdpi="96"
         inkscape:export-ydpi="96" />
    </g>
  </g>
</svg>
